<?xml version="1.0" standalone="no"?>
<!DOCTYPE svg PUBLIC "-//W3C//DTD SVG 1.1//EN" "http://www.w3.org/Graphics/SVG/1.1/DTD/svg11.dtd"><svg xmlns="http://www.w3.org/2000/svg" style="background-color:#FFF" width="794" height="1123"><path stroke="black" fill="none" stroke-width="1" d="M684.87, 450L681, 449.53L675.42, 448.32L670.06, 446.63L664.93, 444.49L660.09, 441.91L655.54, 438.94L651.32, 435.58L647.47, 431.87L644, 427.84L640.95, 423.5L638.35, 418.89L636.23, 414.02L634.61, 408.93L633.53, 403.64L633.01, 398.18L633.08, 392.7L633.73, 387.35L634.93, 382.16L636.66, 377.16L638.87, 372.38L641.56, 367.84L644.69, 363.58L648.23, 359.61L652.17, 355.97L656.46, 352.69L661.08, 349.78L666.02, 347.29L671.23, 345.23L676.69, 343.64L682.38, 342.54L687.86, 342M749, 407.01L747.61, 412.08L745.69, 417.02L743.28, 421.72L740.41, 426.16L737.11, 430.31L733.41, 434.15L729.33, 437.65L724.91, 440.78L720.17, 443.52L715.14, 445.84L709.85, 447.72L704.32, 449.12L698.72, 450M749, 385.49L747.98, 381.37L746.16, 376.34L743.84, 371.55L741.06, 367.04L737.83, 362.81L734.21, 358.9L730.2, 355.32L725.85, 352.12L721.19, 349.3L716.24, 346.9L711.03, 344.93L705.61, 343.43L699.98, 342.42L695.12, 342"/></svg>